<svg width="16" height="16" viewBox="0 0 16 16" fill="none" xmlns="http://www.w3.org/2000/svg">
<path d="M3.8 0H12.2C14.3 0 16 1.7 16 3.8V12.2C16 14.3 14.3 16 12.2 16H3.8C1.7 16 0 14.3 0 12.2V3.8C0 1.7 1.7 0 3.8 0Z" fill="#094A57"/>
<path d="M7.10005 4.30002C7.70005 4.20002 8.20005 3.60002 8.20005 3.00002C8.10005 2.40002 7.70005 2.00002 7.10005 1.90002C6.40005 1.90002 5.90005 2.50002 6.00005 3.20002C6.00005 3.80002 6.50005 4.20002 7.10005 4.30002Z" fill="white" stroke="white" stroke-miterlimit="10"/>
<path d="M4.09982 5.99998C4.59982 5.89998 4.99982 5.39998 4.99982 4.89998C4.99982 4.49998 4.59982 4.09998 4.19982 4.09998C3.69982 4.19998 3.29982 4.59998 3.39982 5.09998C3.29982 5.59998 3.69982 5.89998 4.09982 5.99998Z" fill="white" stroke="white" stroke-miterlimit="10"/>
<path d="M3.3002 8.99995C3.6002 8.99995 3.9002 8.69995 3.9002 8.39995C3.9002 8.09995 3.7002 7.69995 3.3002 7.69995C2.9002 7.69995 2.7002 7.99995 2.7002 8.39995C2.7002 8.79995 3.0002 8.99995 3.3002 8.99995Z" fill="white" stroke="white" stroke-miterlimit="10"/>
<path d="M8.49997 13.7C6.79997 13.7 5.19997 12.8 4.29997 11.3C4.19997 11 4.29997 10.7 4.49997 10.5C4.79997 10.4 5.09997 10.5 5.29997 10.7C5.89997 11.9 7.19997 12.6 8.49997 12.6C9.09997 12.6 9.69997 12.5 10.2 12.2C10.5 12.1 10.8 12.1 10.9 12.4C11 12.7 10.9 13 10.7 13.2C10.1 13.5 9.29997 13.7 8.49997 13.7Z" fill="white" stroke="white" stroke-width="0.75" stroke-miterlimit="10"/>
<path d="M12.6999 6.10001C12.4999 6.10001 12.2999 6.00001 12.1999 5.80001C11.6999 5.20001 11.0999 4.80001 10.2999 4.60001C9.9999 4.50001 9.8999 4.20001 9.9999 3.90001C10.0999 3.60001 10.3999 3.40001 10.6999 3.50001C11.6999 3.80001 12.4999 4.40001 13.0999 5.20001C13.2999 5.40001 13.1999 5.80001 12.9999 6.00001C12.8999 6.00001 12.7999 6.10001 12.6999 6.10001Z" fill="white" stroke="white" stroke-width="0.75" stroke-miterlimit="10"/>
</svg>
