<svg width="192" height="192" viewBox="0 0 192 192" fill="none" xmlns="http://www.w3.org/2000/svg">
<path d="M192 0H0V192H192V0Z" fill="#094A57"/>
<path d="M92.2199 65.5C110.81 65.5 110.84 36.6 92.2199 36.6C73.5999 36.6 73.5999 65.5 92.2199 65.5Z" fill="#023641"/>
<path d="M56.0501 111.91C65.7401 111.91 65.7601 96.84 56.0501 96.84C46.3401 96.84 46.3401 111.91 56.0501 111.91Z" fill="#023641"/>
<path d="M64.0002 86.93C78.3802 86.93 78.4002 64.6 64.0002 64.6C49.6002 64.6 49.6002 86.93 64.0002 86.93Z" fill="#023641"/>
<path d="M84.9201 58.2001C103.51 58.2001 103.54 29.3101 84.9201 29.3101C66.3001 29.3101 66.3001 58.2001 84.9201 58.2001Z" fill="white"/>
<path d="M56.6898 79.64C71.0698 79.64 71.0898 57.3 56.6898 57.3C42.2898 57.3 42.2998 79.64 56.6898 79.64Z" fill="white"/>
<path d="M48.7498 104.61C58.4398 104.61 58.4598 89.54 48.7498 89.54C39.0398 89.54 39.0398 104.61 48.7498 104.61Z" fill="white"/>
<path d="M103.48 156.52C93.2734 156.513 83.2534 153.782 74.4549 148.608C65.6564 143.434 58.3984 136.006 53.4302 127.09C52.9717 126.325 52.6716 125.475 52.5478 124.591C52.424 123.708 52.479 122.808 52.7096 121.946C52.9401 121.084 53.3415 120.278 53.8898 119.574C54.4382 118.87 55.1224 118.284 55.9018 117.849C56.6812 117.415 57.5399 117.142 58.4269 117.046C59.314 116.95 60.2113 117.033 61.0655 117.291C61.9198 117.548 62.7136 117.975 63.3998 118.545C64.086 119.115 64.6507 119.817 65.0602 120.61C70.6753 130.699 80.0312 138.177 91.1097 141.43C102.188 144.683 114.102 143.451 124.28 138C125.836 137.162 127.66 136.976 129.353 137.483C131.045 137.991 132.467 139.149 133.305 140.705C134.143 142.26 134.329 144.085 133.822 145.778C133.315 147.47 132.156 148.892 130.6 149.73C122.258 154.195 112.942 156.528 103.48 156.52Z" fill="white"/>
<path d="M143.64 75.0999C142.617 75.1012 141.607 74.8663 140.69 74.4136C139.772 73.9609 138.972 73.3026 138.35 72.4899C132.705 65.1785 124.92 59.8093 116.08 57.1299C115.236 56.8848 114.448 56.4749 113.763 55.9239C113.078 55.3728 112.509 54.6915 112.088 53.9193C111.667 53.1471 111.404 52.2993 111.313 51.4248C111.222 50.5502 111.304 49.6663 111.557 48.8239C111.809 47.9816 112.225 47.1975 112.782 46.5169C113.339 45.8364 114.025 45.2728 114.801 44.8587C115.576 44.4446 116.426 44.1882 117.301 44.1044C118.177 44.0205 119.06 44.1107 119.9 44.3699C131.438 47.8029 141.591 54.8049 148.9 64.3699C149.658 65.3552 150.125 66.5328 150.248 67.7695C150.371 69.0062 150.146 70.2528 149.598 71.3682C149.049 72.4836 148.2 73.4233 147.145 74.081C146.091 74.7387 144.873 75.0882 143.63 75.0899L143.64 75.0999Z" fill="white"/>
</svg>
