<svg width="512" height="512" viewBox="0 0 512 512" fill="none" xmlns="http://www.w3.org/2000/svg">
<path d="M512 0H0V512H512V0Z" fill="#094A57"/>
<path d="M245.91 174.66C295.49 174.66 295.57 97.66 245.91 97.66C196.25 97.66 196.26 174.71 245.91 174.71V174.66Z" fill="#023641"/>
<path d="M149.47 298.42C175.32 298.42 175.36 258.25 149.47 258.25C123.58 258.25 123.58 298.42 149.47 298.42Z" fill="#023641"/>
<path d="M170.65 231.82C208.97 231.82 209.04 172.26 170.65 172.26C132.26 172.26 132.26 231.82 170.65 231.82Z" fill="#023641"/>
<path d="M226.45 155.19C276.02 155.19 276.11 78.1899 226.45 78.1899C176.79 78.1899 176.79 155.19 226.45 155.19Z" fill="white"/>
<path d="M151.19 212.36C189.51 212.36 189.57 152.8 151.19 152.8C112.81 152.8 112.8 212.36 151.19 212.36Z" fill="white"/>
<path d="M130 279C155.85 279 155.89 238.83 130 238.83C104.11 238.83 104.11 279 130 279Z" fill="white"/>
<path d="M276 417.38C248.782 417.355 222.064 410.07 198.601 396.277C175.137 382.483 155.778 362.68 142.52 338.91C141.291 336.87 140.485 334.603 140.15 332.245C139.815 329.887 139.958 327.486 140.57 325.184C141.182 322.882 142.25 320.727 143.712 318.847C145.174 316.966 146.999 315.399 149.079 314.239C151.159 313.078 153.451 312.347 155.819 312.091C158.186 311.834 160.582 312.056 162.862 312.744C165.142 313.431 167.261 314.571 169.092 316.094C170.923 317.617 172.429 319.493 173.52 321.61C188.494 348.511 213.446 368.445 242.989 377.109C272.533 385.773 304.299 382.473 331.43 367.92C335.578 365.687 340.443 365.193 344.955 366.547C349.467 367.901 353.257 370.992 355.49 375.14C357.723 379.288 358.217 384.153 356.863 388.665C355.509 393.177 352.418 396.967 348.27 399.2C326.048 411.127 301.22 417.372 276 417.38Z" fill="white"/>
<path d="M383 200.26C380.275 200.263 377.585 199.639 375.14 198.436C372.695 197.232 370.56 195.482 368.9 193.32C353.864 173.803 333.108 159.469 309.53 152.32C307.204 151.735 305.021 150.685 303.112 149.234C301.203 147.783 299.608 145.96 298.423 143.875C297.237 141.79 296.486 139.487 296.215 137.105C295.944 134.722 296.158 132.309 296.845 130.011C297.531 127.714 298.676 125.579 300.21 123.735C301.744 121.892 303.635 120.379 305.77 119.286C307.905 118.194 310.239 117.545 312.631 117.379C315.024 117.213 317.425 117.533 319.69 118.32C350.474 127.478 377.564 146.155 397.07 171.67C399.088 174.299 400.331 177.441 400.658 180.74C400.984 184.038 400.382 187.362 398.918 190.336C397.454 193.311 395.188 195.816 392.375 197.57C389.562 199.323 386.315 200.255 383 200.26Z" fill="white"/>
</svg>
